<svg width="250" height="250" viewBox="0 0 250 250" fill="none" xmlns="http://www.w3.org/2000/svg">
<g clip-path="url(#clip0_3_1097)">
<g clip-path="url(#clip1_3_1097)">
<path d="M187.867 193.133C190.267 195 191.333 197.133 191.333 200.2C191.333 203.933 189.2 206.6 174.933 220.733C161.6 233.933 157.733 237 154.667 237C149.467 237 144.667 232.2 144.667 227.133C144.667 223.667 147.2 220.6 161.2 206.733C179.067 189.133 181.333 187.933 187.867 193.133Z" fill="url(#paint0_linear_3_1097)"/>
<path d="M184.267 159.933C186.133 161.667 187.333 164.333 187.333 166.867C187.333 170.467 184.133 174.2 163.333 194.6C144.133 213.667 138.667 218.333 135.733 218.333C130.8 218.333 126 213.533 126 208.333C126 204.733 129.067 201.133 149.733 180.6C175.467 155 177.733 153.667 184.267 159.933Z" fill="url(#paint1_linear_3_1097)"/>
<path d="M180.267 126.6C186.667 132.6 185.6 134.067 152.4 167.267C132.533 187 120 198.467 117.733 199C112.8 200.2 105.733 193.667 106.933 188.867C107.333 187.133 121.467 171.8 138.533 154.6C171.867 121.133 173.333 120.067 180.267 126.6Z" fill="url(#paint2_linear_3_1097)"/>
<path d="M173.867 93.8C182 100.6 182.933 99.4 125.067 156.6C77.8667 203.4 71.7333 209 68 209C64.4 209 61.4667 206.6 46.9333 192.067C35.8667 181 30 174.067 30 172.2C30 167.4 34.9333 162.333 39.6 162.333C42.9333 162.333 45.8667 164.467 55.8667 174.2L68 186.2L107.333 147.267C154.933 100.067 165.333 90.3334 167.867 90.3334C168.933 90.3334 171.6 91.9334 173.867 93.8Z" fill="#08B4D5"/>
<path d="M142.267 9.40002C148 12.0667 158.533 21.8 196.267 59.1334C240.533 103.133 243.2 106.067 246 113.667C249.733 123.933 249.2 137.4 244.8 146.333C242.933 149.8 234.133 159.933 223.6 170.6C207.733 186.6 204.8 189 201.067 189C198.133 189 196.133 188.067 194.8 186.067C190.4 179.8 191.733 177.4 209.867 159C219.467 149.4 227.867 139.933 228.533 137.933C230.533 132.6 230.4 122.867 228.133 118.6C225.333 113.4 139.467 28.3334 134.4 25.8C129.067 23.1334 122 23.1334 115.6 25.6667C112.267 27.1334 96.1333 42.2 66.9333 71.4C20.1333 118.2 18.2667 120.6 19.7333 131.667C20.1333 134.6 22.4 140.067 24.6667 143.667C29.6 151.4 29.3333 155.667 23.8667 159.267C19.2 162.333 14.5333 160.467 9.06667 153.267C3.33333 145.667 0.133333 134.6 1.06667 125.533C2.53333 111 4.13334 109 53.0667 59.9333C78.1333 34.7333 100.8 12.8667 103.333 11.2667C114.4 4.33336 129.867 3.53336 142.267 9.40002Z" fill="#23242E"/>
</g>
</g>
<defs>
<linearGradient id="paint0_linear_3_1097" x1="140.667" y1="326.333" x2="140.667" y2="-67" gradientUnits="userSpaceOnUse">
<stop stop-color="#3A82F5"/>
<stop offset="0.796875" stop-color="#B9F2FF"/>
<stop offset="1" stop-color="#06B6D4"/>
</linearGradient>
<linearGradient id="paint1_linear_3_1097" x1="140.667" y1="326.333" x2="140.667" y2="-67" gradientUnits="userSpaceOnUse">
<stop stop-color="#0061FB"/>
<stop offset="0.744792" stop-color="#B9F2FF"/>
<stop offset="1" stop-color="#06B6D4"/>
</linearGradient>
<linearGradient id="paint2_linear_3_1097" x1="140.667" y1="326.333" x2="140.667" y2="-67" gradientUnits="userSpaceOnUse">
<stop stop-color="#0061FB"/>
<stop offset="0.9999" stop-color="#B9F2FF"/>
<stop offset="1" stop-color="#06B6D4"/>
</linearGradient>
<clipPath id="clip0_3_1097">
<rect width="250" height="250" fill="white"/>
</clipPath>
<clipPath id="clip1_3_1097">
<rect width="509.333" height="393.333" fill="white" transform="translate(-114 -67)"/>
</clipPath>
</defs>
</svg>
